<svg width="171" height="49" viewBox="0 0 171 49" fill="none" xmlns="http://www.w3.org/2000/svg">
<path d="M39.8131 46.8167H1.75627C1.4548 46.8167 1.16567 46.6968 0.9525 46.4834C0.739327 46.2699 0.619568 45.9804 0.619568 45.6786V7.5739C0.619568 7.27205 0.739327 6.98256 0.9525 6.76912C1.16567 6.55568 1.4548 6.43577 1.75627 6.43577C2.05774 6.43577 2.34687 6.55568 2.56004 6.76912C2.77321 6.98256 2.89297 7.27205 2.89297 7.5739V44.5405H38.6764V1.42799C38.6764 1.12614 38.7961 0.836649 39.0093 0.623207C39.2225 0.409766 39.5116 0.289856 39.8131 0.289856C40.1145 0.289856 40.4037 0.409766 40.6168 0.623207C40.83 0.836649 40.9498 1.12614 40.9498 1.42799V45.6786C40.9498 45.9804 40.83 46.2699 40.6168 46.4834C40.4037 46.6968 40.1145 46.8167 39.8131 46.8167Z" fill="white"/>
<path d="M11.3318 40.9166C11.0304 40.9166 10.7412 40.7967 10.5281 40.5833C10.3149 40.3698 10.1951 40.0803 10.1951 39.7785V16.424C10.1951 16.1222 10.3149 15.8327 10.5281 15.6192C10.7412 15.4058 11.0304 15.2859 11.3318 15.2859C11.6333 15.2859 11.9224 15.4058 12.1356 15.6192C12.3488 15.8327 12.4685 16.1222 12.4685 16.424V39.7785C12.4685 40.0803 12.3488 40.3698 12.1356 40.5833C11.9224 40.7967 11.6333 40.9166 11.3318 40.9166Z" fill="white"/>
<path d="M20.6664 40.9166C20.365 40.9166 20.0758 40.7967 19.8627 40.5833C19.6495 40.3698 19.5297 40.0803 19.5297 39.7785V20.6032C19.5297 20.3014 19.6495 20.0119 19.8627 19.7985C20.0758 19.585 20.365 19.4651 20.6664 19.4651C20.9679 19.4651 21.257 19.585 21.4702 19.7985C21.6834 20.0119 21.8031 20.3014 21.8031 20.6032V39.7785C21.8031 40.0803 21.6834 40.3698 21.4702 40.5833C21.257 40.7967 20.9679 40.9166 20.6664 40.9166Z" fill="white"/>
<path d="M30.2375 40.9166C29.936 40.9166 29.6469 40.7967 29.4337 40.5833C29.2205 40.3698 29.1008 40.0803 29.1008 39.7785V12.4906C29.1008 12.1888 29.2205 11.8993 29.4337 11.6859C29.6469 11.4724 29.936 11.3525 30.2375 11.3525C30.5389 11.3525 30.8281 11.4724 31.0412 11.6859C31.2544 11.8993 31.3742 12.1888 31.3742 12.4906V39.7785C31.3742 40.0803 31.2544 40.3698 31.0412 40.5833C30.8281 40.7967 30.5389 40.9166 30.2375 40.9166Z" fill="white"/>
<path d="M74.2927 45.8333H54.7675C54.466 45.8333 54.1769 45.7134 53.9637 45.5C53.7506 45.2866 53.6308 44.9971 53.6308 44.6952V6.83637C53.6308 6.53452 53.7506 6.24503 53.9637 6.03159C54.1769 5.81815 54.466 5.69824 54.7675 5.69824C55.069 5.69824 55.3581 5.81815 55.5713 6.03159C55.7844 6.24503 55.9042 6.53452 55.9042 6.83637V43.5571H74.2927C80.8924 43.5571 86.3792 38.2488 86.5236 31.7205C86.5236 31.6188 86.5236 31.5175 86.5236 31.4166C86.5236 25.018 84.0126 22.7907 82.9327 22.1295C82.7248 22.0026 82.5501 21.8279 82.4232 21.6199C82.2963 21.4118 82.2208 21.1764 82.2032 20.9332C82.1855 20.6901 82.2261 20.4462 82.3215 20.2219C82.417 19.9976 82.5646 19.7994 82.752 19.6438C83.8887 18.7014 86.5236 15.9483 86.5236 10.7663C86.5236 10.6764 86.5236 10.5865 86.5236 10.4989C86.4099 5.98733 82.6088 2.31685 78.037 2.31685H65.0785C64.7771 2.31685 64.4879 2.19694 64.2748 1.9835C64.0616 1.77006 63.9418 1.48057 63.9418 1.17872C63.9418 0.876864 64.0616 0.587376 64.2748 0.373934C64.4879 0.160493 64.7771 0.0405829 65.0785 0.0405829H78.037C80.832 0.0345512 83.5198 1.11692 85.5324 3.05891C86.5351 4.01433 87.3396 5.15849 87.8998 6.42582C88.46 7.69315 88.7649 9.05872 88.797 10.4443C88.797 10.5501 88.797 10.6582 88.797 10.7663C88.797 16.02 86.4497 19.2193 84.9061 20.7546C86.4815 22.0634 88.8004 25.0658 88.8004 31.42C88.8004 31.5384 88.8004 31.6568 88.8004 31.7751C88.7605 33.6449 88.3525 35.4884 87.5998 37.2001C86.8471 38.9117 85.7644 40.4578 84.4139 41.7497C81.6988 44.3768 78.0684 45.8416 74.2927 45.8333Z" fill="white"/>
<path d="M110.226 48.1165C104.005 48.1165 100.034 44.3162 97.7985 41.1272C95.8934 38.4245 94.872 35.197 94.8749 31.889V14.5279C94.8749 14.2261 94.9946 13.9366 95.2078 13.7231C95.421 13.5097 95.7101 13.3898 96.0116 13.3898C96.3131 13.3898 96.6022 13.5097 96.8154 13.7231C97.0285 13.9366 97.1483 14.2261 97.1483 14.5279V31.889C97.1466 34.7288 98.0238 37.4994 99.6593 39.8195C102.461 43.8143 106.016 45.8402 110.231 45.8402C113.092 45.8402 115.752 44.9695 118.135 43.2509C121.868 40.5593 124.097 36.2719 124.097 31.7808V14.5279C124.097 14.2261 124.217 13.9366 124.43 13.7231C124.643 13.5097 124.933 13.3898 125.234 13.3898C125.535 13.3898 125.825 13.5097 126.038 13.7231C126.251 13.9366 126.371 14.2261 126.371 14.5279V31.7808C126.371 37.0015 123.789 41.9797 119.464 45.097C116.68 47.1012 113.574 48.1165 110.226 48.1165Z" fill="white"/>
<path d="M145.671 47.0626H136.278C135.977 47.0626 135.688 46.9427 135.474 46.7292C135.261 46.5158 135.141 46.2263 135.141 45.9244V7.08225C135.141 6.7804 135.261 6.49091 135.474 6.27747C135.688 6.06403 135.977 5.94412 136.278 5.94412C136.58 5.94412 136.869 6.06403 137.082 6.27747C137.295 6.49091 137.415 6.7804 137.415 7.08225V44.7863H145.671C152.874 44.7863 159.652 41.356 163.793 35.6118C166.45 31.9288 167.797 27.6654 167.797 22.9387C167.797 14.2047 163.552 9.16731 159.992 6.46879C155.887 3.36397 151.43 2.3203 150.028 2.3203C149.726 2.3203 149.437 2.20039 149.224 1.98695C149.011 1.77351 148.891 1.48402 148.891 1.18217C148.891 0.880318 149.011 0.590829 149.224 0.377388C149.437 0.163947 149.726 0.0440369 150.028 0.0440369C151.733 0.0440369 156.758 1.16965 161.363 4.65234C165.335 7.65701 170.07 13.268 170.07 22.9387C170.07 28.1536 168.579 32.8655 165.637 36.9446C161.065 43.2794 153.602 47.0626 145.671 47.0626Z" fill="white"/>
</svg>
